# Blender v2.78 (sub 0) OBJ File: 'PAPERPLANE.blend'
# www.blender.org
mtllib PAPERPLANE.mtl
o Plane_Plane.001
v 1.558989 1.844027 0.581466
v 1.710311 1.856321 0.581435
v 1.426845 2.844478 2.460694
v 1.870572 2.827028 2.462022
v 1.635092 1.866669 -0.994519
v 1.635092 1.866669 2.463238
v 0.910430 2.414808 2.164777
v 2.382517 2.320334 2.165344
v 1.869475 2.829963 2.463238
v 1.763898 2.264189 0.736131
v 1.521626 2.260747 0.734461
v 1.536019 1.842383 0.579211
v 1.733197 1.853735 0.579228
v 1.437193 2.863930 2.450977
v 1.884118 2.843953 2.450824
v 1.633399 1.885238 -1.013721
v 1.635367 1.889752 2.463238
v 0.897993 2.432383 2.153027
v 2.396603 2.336773 2.154034
v 1.858600 2.849250 2.454021
v 1.762094 2.242352 0.746384
v 1.519866 2.238788 0.744195
vn -0.9781 -0.2083 0.0000
vn -0.6048 -0.7557 0.2512
vn 0.9962 0.0713 0.0491
vn 0.4564 0.8592 -0.2313
vn 0.9717 -0.2364 0.0000
vn -0.9925 0.1122 0.0481
vn 0.5247 -0.8103 0.2609
vn -0.3069 0.9234 -0.2306
vn 0.9799 0.1993 -0.0008
vn 0.5886 0.7672 -0.2549
vn -0.9980 -0.0151 -0.0614
vn -0.3308 -0.9198 0.2108
vn -0.9740 0.2266 0.0003
vn 0.9969 -0.0469 -0.0634
vn -0.5116 0.8189 -0.2603
vn 0.1632 -0.9651 0.2046
vn 0.5739 -0.8178 -0.0425
vn 0.5146 -0.2827 0.8095
vn 0.4323 0.0968 0.8965
vn 0.5631 0.0880 0.8217
vn -0.5372 -0.8421 -0.0468
vn -0.3975 0.0990 0.9122
vn -0.6593 0.3489 0.6660
vn -0.3774 -0.9008 0.2145
vn 0.2809 0.4555 0.8447
vn -0.5851 -0.2510 0.7712
vn 0.2578 -0.9391 0.2270
usemtl None
s off
f 6//1 3//1 5//1
f 4//2 9//2 5//2 8//2
f 5//3 11//3 1//3
f 8//4 5//4 10//4
f 5//5 9//5 6//5
f 10//6 5//6 2//6
f 5//7 3//7 7//7
f 11//8 5//8 7//8
f 17//9 16//9 14//9
f 15//10 19//10 16//10 20//10
f 16//11 12//11 22//11
f 19//12 21//12 16//12
f 16//13 17//13 20//13
f 21//14 13//14 16//14
f 16//15 18//15 14//15
f 22//16 18//16 16//16
f 2//17 5//17 16//17 13//17
f 1//18 11//18 22//18 12//18
f 3//19 6//19 17//19 14//19
f 4//20 8//20 19//20 15//20
f 5//21 1//21 12//21 16//21
f 6//22 9//22 20//22 17//22
f 7//23 3//23 14//23 18//23
f 8//24 10//24 21//24 19//24
f 9//25 4//25 15//25 20//25
f 10//26 2//26 13//26 21//26
f 11//27 7//27 18//27 22//27
